<?xml version="1.0" encoding="UTF-8" standalone="yes"?><svg xmlns="http://www.w3.org/2000/svg" xmlns:xlink="http://www.w3.org/1999/xlink" height="707px" style="width:1334px;height:707px;" version="1.1" viewBox="0 0 1334 707" width="1334px"><defs><filter height="300%" id="f1" width="300%" x="-1" y="-1"><feGaussianBlur result="blurOut" stdDeviation="2.0"/><feColorMatrix in="blurOut" result="blurOut2" type="matrix" values="0 0 0 0 0 0 0 0 0 0 0 0 0 0 0 0 0 0 .4 0"/><feOffset dx="4.0" dy="4.0" in="blurOut2" result="blurOut3"/><feBlend in="SourceGraphic" in2="blurOut3" mode="normal"/></filter></defs><g><text fill="#B40D63" font-family="sans-serif" font-size="18" font-weight="bold" lengthAdjust="spacingAndGlyphs" textLength="368" x="484.5" y="44.2637">SampleService.getDummySampleService</text><rect fill="#FFFFFF" filter="url(#f1)" height="481.2734" style="stroke: #B40D63; stroke-width: 1.0;" width="10" x="287.5" y="148.9531"/><rect fill="#FFFFFF" filter="url(#f1)" height="420.5703" style="stroke: #B40D63; stroke-width: 1.0;" width="10" x="618.5" y="179.3047"/><rect fill="#FFFFFF" filter="url(#f1)" height="102.0547" style="stroke: #B40D63; stroke-width: 1.0;" width="10" x="623.5" y="217.6563"/><rect fill="#FFFFFF" filter="url(#f1)" height="30.3516" style="stroke: #B40D63; stroke-width: 1.0;" width="10" x="773.5" y="253.0078"/><rect fill="#FFFFFF" filter="url(#f1)" height="91.0547" style="stroke: #B40D63; stroke-width: 1.0;" width="10" x="773.5" y="357.0625"/><rect fill="#FFFFFF" filter="url(#f1)" height="30.3516" style="stroke: #B40D63; stroke-width: 1.0;" width="10" x="928.5" y="387.4141"/><rect fill="#FFFFFF" filter="url(#f1)" height="91.0547" style="stroke: #B40D63; stroke-width: 1.0;" width="10" x="1066.5" y="478.4688"/><rect fill="#FFFFFF" filter="url(#f1)" height="30.3516" style="stroke: #B40D63; stroke-width: 1.0;" width="10" x="1278.5" y="508.8203"/><rect fill="#E7FFE7" height="635.7422" style="stroke: #A80036; stroke-width: 1.0;" width="213" x="186" y="56.2188"/><text fill="#000000" font-family="sans-serif" font-size="13" font-weight="bold" lengthAdjust="spacingAndGlyphs" textLength="63" x="261" y="69.7139">Operation</text><rect fill="#FFF1F9" height="635.7422" style="stroke: #A80036; stroke-width: 1.0;" width="609" x="401" y="56.2188"/><text fill="#000000" font-family="sans-serif" font-size="13" font-weight="bold" lengthAdjust="spacingAndGlyphs" textLength="79" x="666" y="69.7139">Components</text><rect fill="#EFF6FF" height="635.7422" style="stroke: #A80036; stroke-width: 1.0;" width="119" x="1012" y="56.2188"/><text fill="#000000" font-family="sans-serif" font-size="13" font-weight="bold" lengthAdjust="spacingAndGlyphs" textLength="25" x="1059" y="69.7139">Dao</text><rect fill="#FFF9F4" height="635.7422" style="stroke: #A80036; stroke-width: 1.0;" width="200" x="1133" y="56.2188"/><text fill="#000000" font-family="sans-serif" font-size="13" font-weight="bold" lengthAdjust="spacingAndGlyphs" textLength="55" x="1205.5" y="69.7139">Backend</text><line style="stroke: #B40D63; stroke-width: 1.0; stroke-dasharray: 5.0,5.0;" x1="56" x2="56" y1="116.9531" y2="648.5781"/><line style="stroke: #B40D63; stroke-width: 1.0; stroke-dasharray: 5.0,5.0;" x1="292" x2="292" y1="116.9531" y2="648.5781"/><line style="stroke: #B40D63; stroke-width: 1.0; stroke-dasharray: 5.0,5.0;" x1="473" x2="473" y1="116.9531" y2="648.5781"/><line style="stroke: #B40D63; stroke-width: 1.0; stroke-dasharray: 5.0,5.0;" x1="623" x2="623" y1="116.9531" y2="648.5781"/><line style="stroke: #B40D63; stroke-width: 1.0; stroke-dasharray: 5.0,5.0;" x1="778" x2="778" y1="116.9531" y2="648.5781"/><line style="stroke: #B40D63; stroke-width: 1.0; stroke-dasharray: 5.0,5.0;" x1="933" x2="933" y1="116.9531" y2="648.5781"/><line style="stroke: #B40D63; stroke-width: 1.0; stroke-dasharray: 5.0,5.0;" x1="1071" x2="1071" y1="116.9531" y2="648.5781"/><line style="stroke: #B40D63; stroke-width: 1.0; stroke-dasharray: 5.0,5.0;" x1="1182" x2="1182" y1="116.9531" y2="648.5781"/><line style="stroke: #B40D63; stroke-width: 1.0; stroke-dasharray: 5.0,5.0;" x1="1283" x2="1283" y1="116.9531" y2="648.5781"/><rect fill="#FFFFFF" filter="url(#f1)" height="35.3828" style="stroke: #E20074; stroke-width: 1.5;" width="93" x="8" y="76.5703"/><text fill="#000000" font-family="sans-serif" font-size="17" lengthAdjust="spacingAndGlyphs" textLength="79" x="15" y="101.2178">SoapClient</text><rect fill="#FFFFFF" filter="url(#f1)" height="35.3828" style="stroke: #E20074; stroke-width: 1.5;" width="93" x="8" y="647.5781"/><text fill="#000000" font-family="sans-serif" font-size="17" lengthAdjust="spacingAndGlyphs" textLength="79" x="15" y="672.2256">SoapClient</text><rect fill="#FFFFFF" filter="url(#f1)" height="35.3828" style="stroke: #E20074; stroke-width: 1.5;" width="201" x="190" y="76.5703"/><text fill="#000000" font-family="sans-serif" font-size="17" lengthAdjust="spacingAndGlyphs" textLength="187" x="197" y="101.2178">getDummySampleService</text><rect fill="#FFFFFF" filter="url(#f1)" height="35.3828" style="stroke: #E20074; stroke-width: 1.5;" width="201" x="190" y="647.5781"/><text fill="#000000" font-family="sans-serif" font-size="17" lengthAdjust="spacingAndGlyphs" textLength="187" x="197" y="672.2256">getDummySampleService</text><rect fill="#FFFFFF" filter="url(#f1)" height="35.3828" style="stroke: #E20074; stroke-width: 1.5;" width="132" x="405" y="76.5703"/><text fill="#000000" font-family="sans-serif" font-size="17" lengthAdjust="spacingAndGlyphs" textLength="118" x="412" y="101.2178">SampleValidator</text><rect fill="#FFFFFF" filter="url(#f1)" height="35.3828" style="stroke: #E20074; stroke-width: 1.5;" width="132" x="405" y="647.5781"/><text fill="#000000" font-family="sans-serif" font-size="17" lengthAdjust="spacingAndGlyphs" textLength="118" x="412" y="672.2256">SampleValidator</text><rect fill="#FFFFFF" filter="url(#f1)" height="35.3828" style="stroke: #E20074; stroke-width: 1.5;" width="141" x="551" y="76.5703"/><text fill="#000000" font-family="sans-serif" font-size="17" lengthAdjust="spacingAndGlyphs" textLength="127" x="558" y="101.2178">SampleManager1</text><rect fill="#FFFFFF" filter="url(#f1)" height="35.3828" style="stroke: #E20074; stroke-width: 1.5;" width="141" x="551" y="647.5781"/><text fill="#000000" font-family="sans-serif" font-size="17" lengthAdjust="spacingAndGlyphs" textLength="127" x="558" y="672.2256">SampleManager1</text><rect fill="#FFFFFF" filter="url(#f1)" height="35.3828" style="stroke: #E20074; stroke-width: 1.5;" width="141" x="706" y="76.5703"/><text fill="#000000" font-family="sans-serif" font-size="17" lengthAdjust="spacingAndGlyphs" textLength="127" x="713" y="101.2178">SampleManager2</text><rect fill="#FFFFFF" filter="url(#f1)" height="35.3828" style="stroke: #E20074; stroke-width: 1.5;" width="141" x="706" y="647.5781"/><text fill="#000000" font-family="sans-serif" font-size="17" lengthAdjust="spacingAndGlyphs" textLength="127" x="713" y="672.2256">SampleManager2</text><rect fill="#FFFFFF" filter="url(#f1)" height="35.3828" style="stroke: #E20074; stroke-width: 1.5;" width="141" x="861" y="76.5703"/><text fill="#000000" font-family="sans-serif" font-size="17" lengthAdjust="spacingAndGlyphs" textLength="127" x="868" y="101.2178">SampleManager3</text><rect fill="#FFFFFF" filter="url(#f1)" height="35.3828" style="stroke: #E20074; stroke-width: 1.5;" width="141" x="861" y="647.5781"/><text fill="#000000" font-family="sans-serif" font-size="17" lengthAdjust="spacingAndGlyphs" textLength="127" x="868" y="672.2256">SampleManager3</text><rect fill="#FFFFFF" filter="url(#f1)" height="35.3828" style="stroke: #E20074; stroke-width: 1.5;" width="107" x="1016" y="76.5703"/><text fill="#000000" font-family="sans-serif" font-size="17" lengthAdjust="spacingAndGlyphs" textLength="93" x="1023" y="101.2178">SampleDao1</text><rect fill="#FFFFFF" filter="url(#f1)" height="35.3828" style="stroke: #E20074; stroke-width: 1.5;" width="107" x="1016" y="647.5781"/><text fill="#000000" font-family="sans-serif" font-size="17" lengthAdjust="spacingAndGlyphs" textLength="93" x="1023" y="672.2256">SampleDao1</text><rect fill="#FFFFFF" filter="url(#f1)" height="35.3828" style="stroke: #E20074; stroke-width: 1.5;" width="87" x="1137" y="76.5703"/><text fill="#000000" font-family="sans-serif" font-size="17" lengthAdjust="spacingAndGlyphs" textLength="73" x="1144" y="101.2178">Backend1</text><rect fill="#FFFFFF" filter="url(#f1)" height="35.3828" style="stroke: #E20074; stroke-width: 1.5;" width="87" x="1137" y="647.5781"/><text fill="#000000" font-family="sans-serif" font-size="17" lengthAdjust="spacingAndGlyphs" textLength="73" x="1144" y="672.2256">Backend1</text><rect fill="#FFFFFF" filter="url(#f1)" height="35.3828" style="stroke: #E20074; stroke-width: 1.5;" width="87" x="1238" y="76.5703"/><text fill="#000000" font-family="sans-serif" font-size="17" lengthAdjust="spacingAndGlyphs" textLength="73" x="1245" y="101.2178">Backend2</text><rect fill="#FFFFFF" filter="url(#f1)" height="35.3828" style="stroke: #E20074; stroke-width: 1.5;" width="87" x="1238" y="647.5781"/><text fill="#000000" font-family="sans-serif" font-size="17" lengthAdjust="spacingAndGlyphs" textLength="73" x="1245" y="672.2256">Backend2</text><rect fill="#FFFFFF" filter="url(#f1)" height="481.2734" style="stroke: #B40D63; stroke-width: 1.0;" width="10" x="287.5" y="148.9531"/><rect fill="#FFFFFF" filter="url(#f1)" height="420.5703" style="stroke: #B40D63; stroke-width: 1.0;" width="10" x="618.5" y="179.3047"/><rect fill="#FFFFFF" filter="url(#f1)" height="102.0547" style="stroke: #B40D63; stroke-width: 1.0;" width="10" x="623.5" y="217.6563"/><rect fill="#FFFFFF" filter="url(#f1)" height="30.3516" style="stroke: #B40D63; stroke-width: 1.0;" width="10" x="773.5" y="253.0078"/><rect fill="#FFFFFF" filter="url(#f1)" height="91.0547" style="stroke: #B40D63; stroke-width: 1.0;" width="10" x="773.5" y="357.0625"/><rect fill="#FFFFFF" filter="url(#f1)" height="30.3516" style="stroke: #B40D63; stroke-width: 1.0;" width="10" x="928.5" y="387.4141"/><rect fill="#FFFFFF" filter="url(#f1)" height="91.0547" style="stroke: #B40D63; stroke-width: 1.0;" width="10" x="1066.5" y="478.4688"/><rect fill="#FFFFFF" filter="url(#f1)" height="30.3516" style="stroke: #B40D63; stroke-width: 1.0;" width="10" x="1278.5" y="508.8203"/><polygon fill="#B40D63" points="275.5,144.9531,285.5,148.9531,275.5,152.9531,279.5,148.9531" style="stroke: #B40D63; stroke-width: 1.0;"/><line style="stroke: #B40D63; stroke-width: 1.0;" x1="56.5" x2="281.5" y1="148.9531" y2="148.9531"/><text fill="#000000" font-family="sans-serif" font-size="13" lengthAdjust="spacingAndGlyphs" textLength="197" x="63.5" y="144.4482">getDummySampleServiceRequest</text><polygon fill="#B40D63" points="606.5,175.3047,616.5,179.3047,606.5,183.3047,610.5,179.3047" style="stroke: #B40D63; stroke-width: 1.0;"/><line style="stroke: #B40D63; stroke-width: 1.0;" x1="297.5" x2="612.5" y1="179.3047" y2="179.3047"/><text fill="#000000" font-family="sans-serif" font-size="13" lengthAdjust="spacingAndGlyphs" textLength="50" x="304.5" y="174.7998">method1</text><line style="stroke: #B40D63; stroke-width: 1.0;" x1="628.5" x2="675.5" y1="205.0078" y2="205.0078"/><line style="stroke: #B40D63; stroke-width: 1.0;" x1="675.5" x2="675.5" y1="205.0078" y2="218.0078"/><line style="stroke: #B40D63; stroke-width: 1.0;" x1="634.5" x2="675.5" y1="218.0078" y2="218.0078"/><polygon fill="#B40D63" points="644.5,214.0078,634.5,218.0078,644.5,222.0078,640.5,218.0078" style="stroke: #B40D63; stroke-width: 1.0;"/><text fill="#000000" font-family="sans-serif" font-size="13" lengthAdjust="spacingAndGlyphs" textLength="50" x="640.5" y="200.1514">method2</text><polygon fill="#B40D63" points="761.5,249.0078,771.5,253.0078,761.5,257.0078,765.5,253.0078" style="stroke: #B40D63; stroke-width: 1.0;"/><line style="stroke: #B40D63; stroke-width: 1.0;" x1="633.5" x2="767.5" y1="253.0078" y2="253.0078"/><text fill="#000000" font-family="sans-serif" font-size="13" lengthAdjust="spacingAndGlyphs" textLength="50" x="640.5" y="248.5029">method2</text><polygon fill="#B40D63" points="644.5,279.3594,634.5,283.3594,644.5,287.3594,640.5,283.3594" style="stroke: #B40D63; stroke-width: 1.0;"/><line style="stroke: #B40D63; stroke-width: 1.0; stroke-dasharray: 2.0,2.0;" x1="638.5" x2="777.5" y1="283.3594" y2="283.3594"/><text fill="#000000" font-family="sans-serif" font-size="13" lengthAdjust="spacingAndGlyphs" textLength="50" x="650.5" y="278.8545">method2</text><line style="stroke: #B40D63; stroke-width: 1.0; stroke-dasharray: 2.0,2.0;" x1="633.5" x2="675.5" y1="319.0625" y2="319.0625"/><line style="stroke: #B40D63; stroke-width: 1.0; stroke-dasharray: 2.0,2.0;" x1="675.5" x2="675.5" y1="319.0625" y2="332.0625"/><line style="stroke: #B40D63; stroke-width: 1.0; stroke-dasharray: 2.0,2.0;" x1="628.5" x2="675.5" y1="332.0625" y2="332.0625"/><polygon fill="#B40D63" points="638.5,328.0625,628.5,332.0625,638.5,336.0625,634.5,332.0625" style="stroke: #B40D63; stroke-width: 1.0;"/><text fill="#000000" font-family="sans-serif" font-size="13" lengthAdjust="spacingAndGlyphs" textLength="50" x="640.5" y="314.2061">method2</text><polygon fill="#B40D63" points="761.5,353.0625,771.5,357.0625,761.5,361.0625,765.5,357.0625" style="stroke: #B40D63; stroke-width: 1.0;"/><line style="stroke: #B40D63; stroke-width: 1.0;" x1="628.5" x2="767.5" y1="357.0625" y2="357.0625"/><text fill="#000000" font-family="sans-serif" font-size="13" lengthAdjust="spacingAndGlyphs" textLength="50" x="635.5" y="352.5576">method1</text><polygon fill="#B40D63" points="916.5,383.4141,926.5,387.4141,916.5,391.4141,920.5,387.4141" style="stroke: #B40D63; stroke-width: 1.0;"/><line style="stroke: #B40D63; stroke-width: 1.0;" x1="783.5" x2="922.5" y1="387.4141" y2="387.4141"/><text fill="#000000" font-family="sans-serif" font-size="13" lengthAdjust="spacingAndGlyphs" textLength="50" x="790.5" y="382.9092">method1</text><polygon fill="#B40D63" points="794.5,413.7656,784.5,417.7656,794.5,421.7656,790.5,417.7656" style="stroke: #B40D63; stroke-width: 1.0;"/><line style="stroke: #B40D63; stroke-width: 1.0; stroke-dasharray: 2.0,2.0;" x1="788.5" x2="932.5" y1="417.7656" y2="417.7656"/><text fill="#000000" font-family="sans-serif" font-size="13" lengthAdjust="spacingAndGlyphs" textLength="50" x="800.5" y="413.2607">method1</text><polygon fill="#B40D63" points="639.5,444.1172,629.5,448.1172,639.5,452.1172,635.5,448.1172" style="stroke: #B40D63; stroke-width: 1.0;"/><line style="stroke: #B40D63; stroke-width: 1.0; stroke-dasharray: 2.0,2.0;" x1="633.5" x2="777.5" y1="448.1172" y2="448.1172"/><text fill="#000000" font-family="sans-serif" font-size="13" lengthAdjust="spacingAndGlyphs" textLength="50" x="645.5" y="443.6123">method1</text><polygon fill="#B40D63" points="1054.5,474.4688,1064.5,478.4688,1054.5,482.4688,1058.5,478.4688" style="stroke: #B40D63; stroke-width: 1.0;"/><line style="stroke: #B40D63; stroke-width: 1.0;" x1="628.5" x2="1060.5" y1="478.4688" y2="478.4688"/><text fill="#000000" font-family="sans-serif" font-size="13" lengthAdjust="spacingAndGlyphs" textLength="50" x="635.5" y="473.9639">method2</text><polygon fill="#B40D63" points="1266.5,504.8203,1276.5,508.8203,1266.5,512.8203,1270.5,508.8203" style="stroke: #B40D63; stroke-width: 1.0;"/><line style="stroke: #B40D63; stroke-width: 1.0;" x1="1076.5" x2="1272.5" y1="508.8203" y2="508.8203"/><text fill="#000000" font-family="sans-serif" font-size="13" lengthAdjust="spacingAndGlyphs" textLength="18" x="1083.5" y="504.3154">m2</text><polygon fill="#B40D63" points="1087.5,535.1719,1077.5,539.1719,1087.5,543.1719,1083.5,539.1719" style="stroke: #B40D63; stroke-width: 1.0;"/><line style="stroke: #B40D63; stroke-width: 1.0; stroke-dasharray: 2.0,2.0;" x1="1081.5" x2="1282.5" y1="539.1719" y2="539.1719"/><text fill="#000000" font-family="sans-serif" font-size="13" lengthAdjust="spacingAndGlyphs" textLength="18" x="1093.5" y="534.667">m2</text><polygon fill="#B40D63" points="639.5,565.5234,629.5,569.5234,639.5,573.5234,635.5,569.5234" style="stroke: #B40D63; stroke-width: 1.0;"/><line style="stroke: #B40D63; stroke-width: 1.0; stroke-dasharray: 2.0,2.0;" x1="633.5" x2="1070.5" y1="569.5234" y2="569.5234"/><text fill="#000000" font-family="sans-serif" font-size="13" lengthAdjust="spacingAndGlyphs" textLength="50" x="645.5" y="565.0186">method2</text><polygon fill="#B40D63" points="308.5,595.875,298.5,599.875,308.5,603.875,304.5,599.875" style="stroke: #B40D63; stroke-width: 1.0;"/><line style="stroke: #B40D63; stroke-width: 1.0; stroke-dasharray: 2.0,2.0;" x1="302.5" x2="622.5" y1="599.875" y2="599.875"/><text fill="#000000" font-family="sans-serif" font-size="13" lengthAdjust="spacingAndGlyphs" textLength="50" x="314.5" y="595.3701">method1</text><polygon fill="#B40D63" points="67.5,626.2266,57.5,630.2266,67.5,634.2266,63.5,630.2266" style="stroke: #B40D63; stroke-width: 1.0;"/><line style="stroke: #B40D63; stroke-width: 1.0; stroke-dasharray: 2.0,2.0;" x1="61.5" x2="291.5" y1="630.2266" y2="630.2266"/><text fill="#000000" font-family="sans-serif" font-size="13" lengthAdjust="spacingAndGlyphs" textLength="207" x="73.5" y="625.7217">getDummySampleServiceResponse</text><text fill="#888888" font-family="sans-serif" font-size="10" lengthAdjust="spacingAndGlyphs" textLength="92" x="622.5" y="13.3809">Sequence-Diagram</text><text fill="#888888" font-family="sans-serif" font-size="10" lengthAdjust="spacingAndGlyphs" textLength="58" x="578" y="706.3418">Created on :</text><text fill="#888888" font-family="sans-serif" font-size="10" font-style="italic" lengthAdjust="spacingAndGlyphs" textLength="123" x="636" y="706.3418">2018-07-08T14:44:52.270</text></g></svg>