<?xml version="1.0" encoding="UTF-8" standalone="yes"?><svg xmlns="http://www.w3.org/2000/svg" xmlns:xlink="http://www.w3.org/1999/xlink" height="707px" style="width:1087px;height:707px;" version="1.1" viewBox="0 0 1087 707" width="1087px"><defs><filter height="300%" id="f1" width="300%" x="-1" y="-1"><feGaussianBlur result="blurOut" stdDeviation="2.0"/><feColorMatrix in="blurOut" result="blurOut2" type="matrix" values="0 0 0 0 0 0 0 0 0 0 0 0 0 0 0 0 0 0 .4 0"/><feOffset dx="4.0" dy="4.0" in="blurOut2" result="blurOut3"/><feBlend in="SourceGraphic" in2="blurOut3" mode="normal"/></filter></defs><g><text fill="#B40D63" font-family="sans-serif" font-size="18" font-weight="bold" lengthAdjust="spacingAndGlyphs" textLength="368" x="361" y="44.2637">SampleService.getDummySampleService</text><rect fill="#FFFFFF" filter="url(#f1)" height="481.2734" style="stroke: #B40D63; stroke-width: 1.0;" width="10" x="287.5" y="148.9531"/><rect fill="#FFFFFF" filter="url(#f1)" height="420.5703" style="stroke: #B40D63; stroke-width: 1.0;" width="10" x="472.5" y="179.3047"/><rect fill="#FFFFFF" filter="url(#f1)" height="102.0547" style="stroke: #B40D63; stroke-width: 1.0;" width="10" x="477.5" y="217.6563"/><rect fill="#FFFFFF" filter="url(#f1)" height="30.3516" style="stroke: #B40D63; stroke-width: 1.0;" width="10" x="627.5" y="253.0078"/><rect fill="#FFFFFF" filter="url(#f1)" height="91.0547" style="stroke: #B40D63; stroke-width: 1.0;" width="10" x="627.5" y="357.0625"/><rect fill="#FFFFFF" filter="url(#f1)" height="30.3516" style="stroke: #B40D63; stroke-width: 1.0;" width="10" x="782.5" y="387.4141"/><rect fill="#FFFFFF" filter="url(#f1)" height="91.0547" style="stroke: #B40D63; stroke-width: 1.0;" width="10" x="920.5" y="478.4688"/><rect fill="#FFFFFF" filter="url(#f1)" height="30.3516" style="stroke: #B40D63; stroke-width: 1.0;" width="10" x="1031.5" y="508.8203"/><rect fill="#E7FFE7" height="635.7422" style="stroke: #A80036; stroke-width: 1.0;" width="213" x="186" y="56.2188"/><text fill="#000000" font-family="sans-serif" font-size="13" font-weight="bold" lengthAdjust="spacingAndGlyphs" textLength="63" x="261" y="69.7139">Operation</text><rect fill="#FFF1F9" height="635.7422" style="stroke: #A80036; stroke-width: 1.0;" width="463" x="401" y="56.2188"/><text fill="#000000" font-family="sans-serif" font-size="13" font-weight="bold" lengthAdjust="spacingAndGlyphs" textLength="79" x="593" y="69.7139">Components</text><rect fill="#EFF6FF" height="635.7422" style="stroke: #A80036; stroke-width: 1.0;" width="119" x="866" y="56.2188"/><text fill="#000000" font-family="sans-serif" font-size="13" font-weight="bold" lengthAdjust="spacingAndGlyphs" textLength="25" x="913" y="69.7139">Dao</text><rect fill="#FFF9F4" height="635.7422" style="stroke: #A80036; stroke-width: 1.0;" width="99" x="987" y="56.2188"/><text fill="#000000" font-family="sans-serif" font-size="13" font-weight="bold" lengthAdjust="spacingAndGlyphs" textLength="55" x="1009" y="69.7139">Backend</text><line style="stroke: #B40D63; stroke-width: 1.0; stroke-dasharray: 5.0,5.0;" x1="56" x2="56" y1="116.9531" y2="648.5781"/><line style="stroke: #B40D63; stroke-width: 1.0; stroke-dasharray: 5.0,5.0;" x1="292" x2="292" y1="116.9531" y2="648.5781"/><line style="stroke: #B40D63; stroke-width: 1.0; stroke-dasharray: 5.0,5.0;" x1="477" x2="477" y1="116.9531" y2="648.5781"/><line style="stroke: #B40D63; stroke-width: 1.0; stroke-dasharray: 5.0,5.0;" x1="632" x2="632" y1="116.9531" y2="648.5781"/><line style="stroke: #B40D63; stroke-width: 1.0; stroke-dasharray: 5.0,5.0;" x1="787" x2="787" y1="116.9531" y2="648.5781"/><line style="stroke: #B40D63; stroke-width: 1.0; stroke-dasharray: 5.0,5.0;" x1="925" x2="925" y1="116.9531" y2="648.5781"/><line style="stroke: #B40D63; stroke-width: 1.0; stroke-dasharray: 5.0,5.0;" x1="1036" x2="1036" y1="116.9531" y2="648.5781"/><rect fill="#FFFFFF" filter="url(#f1)" height="35.3828" style="stroke: #E20074; stroke-width: 1.5;" width="93" x="8" y="76.5703"/><text fill="#000000" font-family="sans-serif" font-size="17" lengthAdjust="spacingAndGlyphs" textLength="79" x="15" y="101.2178">SoapClient</text><rect fill="#FFFFFF" filter="url(#f1)" height="35.3828" style="stroke: #E20074; stroke-width: 1.5;" width="93" x="8" y="647.5781"/><text fill="#000000" font-family="sans-serif" font-size="17" lengthAdjust="spacingAndGlyphs" textLength="79" x="15" y="672.2256">SoapClient</text><rect fill="#FFFFFF" filter="url(#f1)" height="35.3828" style="stroke: #E20074; stroke-width: 1.5;" width="201" x="190" y="76.5703"/><text fill="#000000" font-family="sans-serif" font-size="17" lengthAdjust="spacingAndGlyphs" textLength="187" x="197" y="101.2178">getDummySampleService</text><rect fill="#FFFFFF" filter="url(#f1)" height="35.3828" style="stroke: #E20074; stroke-width: 1.5;" width="201" x="190" y="647.5781"/><text fill="#000000" font-family="sans-serif" font-size="17" lengthAdjust="spacingAndGlyphs" textLength="187" x="197" y="672.2256">getDummySampleService</text><rect fill="#FFFFFF" filter="url(#f1)" height="35.3828" style="stroke: #E20074; stroke-width: 1.5;" width="141" x="405" y="76.5703"/><text fill="#000000" font-family="sans-serif" font-size="17" lengthAdjust="spacingAndGlyphs" textLength="127" x="412" y="101.2178">SampleManager1</text><rect fill="#FFFFFF" filter="url(#f1)" height="35.3828" style="stroke: #E20074; stroke-width: 1.5;" width="141" x="405" y="647.5781"/><text fill="#000000" font-family="sans-serif" font-size="17" lengthAdjust="spacingAndGlyphs" textLength="127" x="412" y="672.2256">SampleManager1</text><rect fill="#FFFFFF" filter="url(#f1)" height="35.3828" style="stroke: #E20074; stroke-width: 1.5;" width="141" x="560" y="76.5703"/><text fill="#000000" font-family="sans-serif" font-size="17" lengthAdjust="spacingAndGlyphs" textLength="127" x="567" y="101.2178">SampleManager2</text><rect fill="#FFFFFF" filter="url(#f1)" height="35.3828" style="stroke: #E20074; stroke-width: 1.5;" width="141" x="560" y="647.5781"/><text fill="#000000" font-family="sans-serif" font-size="17" lengthAdjust="spacingAndGlyphs" textLength="127" x="567" y="672.2256">SampleManager2</text><rect fill="#FFFFFF" filter="url(#f1)" height="35.3828" style="stroke: #E20074; stroke-width: 1.5;" width="141" x="715" y="76.5703"/><text fill="#000000" font-family="sans-serif" font-size="17" lengthAdjust="spacingAndGlyphs" textLength="127" x="722" y="101.2178">SampleManager3</text><rect fill="#FFFFFF" filter="url(#f1)" height="35.3828" style="stroke: #E20074; stroke-width: 1.5;" width="141" x="715" y="647.5781"/><text fill="#000000" font-family="sans-serif" font-size="17" lengthAdjust="spacingAndGlyphs" textLength="127" x="722" y="672.2256">SampleManager3</text><rect fill="#FFFFFF" filter="url(#f1)" height="35.3828" style="stroke: #E20074; stroke-width: 1.5;" width="107" x="870" y="76.5703"/><text fill="#000000" font-family="sans-serif" font-size="17" lengthAdjust="spacingAndGlyphs" textLength="93" x="877" y="101.2178">SampleDao1</text><rect fill="#FFFFFF" filter="url(#f1)" height="35.3828" style="stroke: #E20074; stroke-width: 1.5;" width="107" x="870" y="647.5781"/><text fill="#000000" font-family="sans-serif" font-size="17" lengthAdjust="spacingAndGlyphs" textLength="93" x="877" y="672.2256">SampleDao1</text><rect fill="#FFFFFF" filter="url(#f1)" height="35.3828" style="stroke: #E20074; stroke-width: 1.5;" width="87" x="991" y="76.5703"/><text fill="#000000" font-family="sans-serif" font-size="17" lengthAdjust="spacingAndGlyphs" textLength="73" x="998" y="101.2178">Backend2</text><rect fill="#FFFFFF" filter="url(#f1)" height="35.3828" style="stroke: #E20074; stroke-width: 1.5;" width="87" x="991" y="647.5781"/><text fill="#000000" font-family="sans-serif" font-size="17" lengthAdjust="spacingAndGlyphs" textLength="73" x="998" y="672.2256">Backend2</text><rect fill="#FFFFFF" filter="url(#f1)" height="481.2734" style="stroke: #B40D63; stroke-width: 1.0;" width="10" x="287.5" y="148.9531"/><rect fill="#FFFFFF" filter="url(#f1)" height="420.5703" style="stroke: #B40D63; stroke-width: 1.0;" width="10" x="472.5" y="179.3047"/><rect fill="#FFFFFF" filter="url(#f1)" height="102.0547" style="stroke: #B40D63; stroke-width: 1.0;" width="10" x="477.5" y="217.6563"/><rect fill="#FFFFFF" filter="url(#f1)" height="30.3516" style="stroke: #B40D63; stroke-width: 1.0;" width="10" x="627.5" y="253.0078"/><rect fill="#FFFFFF" filter="url(#f1)" height="91.0547" style="stroke: #B40D63; stroke-width: 1.0;" width="10" x="627.5" y="357.0625"/><rect fill="#FFFFFF" filter="url(#f1)" height="30.3516" style="stroke: #B40D63; stroke-width: 1.0;" width="10" x="782.5" y="387.4141"/><rect fill="#FFFFFF" filter="url(#f1)" height="91.0547" style="stroke: #B40D63; stroke-width: 1.0;" width="10" x="920.5" y="478.4688"/><rect fill="#FFFFFF" filter="url(#f1)" height="30.3516" style="stroke: #B40D63; stroke-width: 1.0;" width="10" x="1031.5" y="508.8203"/><polygon fill="#B40D63" points="275.5,144.9531,285.5,148.9531,275.5,152.9531,279.5,148.9531" style="stroke: #B40D63; stroke-width: 1.0;"/><line style="stroke: #B40D63; stroke-width: 1.0;" x1="56.5" x2="281.5" y1="148.9531" y2="148.9531"/><text fill="#000000" font-family="sans-serif" font-size="13" lengthAdjust="spacingAndGlyphs" textLength="197" x="63.5" y="144.4482">getDummySampleServiceRequest</text><polygon fill="#B40D63" points="460.5,175.3047,470.5,179.3047,460.5,183.3047,464.5,179.3047" style="stroke: #B40D63; stroke-width: 1.0;"/><line style="stroke: #B40D63; stroke-width: 1.0;" x1="297.5" x2="466.5" y1="179.3047" y2="179.3047"/><text fill="#000000" font-family="sans-serif" font-size="13" lengthAdjust="spacingAndGlyphs" textLength="50" x="304.5" y="174.7998">method1</text><line style="stroke: #B40D63; stroke-width: 1.0;" x1="482.5" x2="529.5" y1="205.0078" y2="205.0078"/><line style="stroke: #B40D63; stroke-width: 1.0;" x1="529.5" x2="529.5" y1="205.0078" y2="218.0078"/><line style="stroke: #B40D63; stroke-width: 1.0;" x1="488.5" x2="529.5" y1="218.0078" y2="218.0078"/><polygon fill="#B40D63" points="498.5,214.0078,488.5,218.0078,498.5,222.0078,494.5,218.0078" style="stroke: #B40D63; stroke-width: 1.0;"/><text fill="#000000" font-family="sans-serif" font-size="13" lengthAdjust="spacingAndGlyphs" textLength="50" x="494.5" y="200.1514">method2</text><polygon fill="#B40D63" points="615.5,249.0078,625.5,253.0078,615.5,257.0078,619.5,253.0078" style="stroke: #B40D63; stroke-width: 1.0;"/><line style="stroke: #B40D63; stroke-width: 1.0;" x1="487.5" x2="621.5" y1="253.0078" y2="253.0078"/><text fill="#000000" font-family="sans-serif" font-size="13" lengthAdjust="spacingAndGlyphs" textLength="50" x="494.5" y="248.5029">method2</text><polygon fill="#B40D63" points="498.5,279.3594,488.5,283.3594,498.5,287.3594,494.5,283.3594" style="stroke: #B40D63; stroke-width: 1.0;"/><line style="stroke: #B40D63; stroke-width: 1.0; stroke-dasharray: 2.0,2.0;" x1="492.5" x2="631.5" y1="283.3594" y2="283.3594"/><text fill="#000000" font-family="sans-serif" font-size="13" lengthAdjust="spacingAndGlyphs" textLength="50" x="504.5" y="278.8545">method2</text><line style="stroke: #B40D63; stroke-width: 1.0; stroke-dasharray: 2.0,2.0;" x1="487.5" x2="529.5" y1="319.0625" y2="319.0625"/><line style="stroke: #B40D63; stroke-width: 1.0; stroke-dasharray: 2.0,2.0;" x1="529.5" x2="529.5" y1="319.0625" y2="332.0625"/><line style="stroke: #B40D63; stroke-width: 1.0; stroke-dasharray: 2.0,2.0;" x1="482.5" x2="529.5" y1="332.0625" y2="332.0625"/><polygon fill="#B40D63" points="492.5,328.0625,482.5,332.0625,492.5,336.0625,488.5,332.0625" style="stroke: #B40D63; stroke-width: 1.0;"/><text fill="#000000" font-family="sans-serif" font-size="13" lengthAdjust="spacingAndGlyphs" textLength="50" x="494.5" y="314.2061">method2</text><polygon fill="#B40D63" points="615.5,353.0625,625.5,357.0625,615.5,361.0625,619.5,357.0625" style="stroke: #B40D63; stroke-width: 1.0;"/><line style="stroke: #B40D63; stroke-width: 1.0;" x1="482.5" x2="621.5" y1="357.0625" y2="357.0625"/><text fill="#000000" font-family="sans-serif" font-size="13" lengthAdjust="spacingAndGlyphs" textLength="50" x="489.5" y="352.5576">method1</text><polygon fill="#B40D63" points="770.5,383.4141,780.5,387.4141,770.5,391.4141,774.5,387.4141" style="stroke: #B40D63; stroke-width: 1.0;"/><line style="stroke: #B40D63; stroke-width: 1.0;" x1="637.5" x2="776.5" y1="387.4141" y2="387.4141"/><text fill="#000000" font-family="sans-serif" font-size="13" lengthAdjust="spacingAndGlyphs" textLength="50" x="644.5" y="382.9092">method1</text><polygon fill="#B40D63" points="648.5,413.7656,638.5,417.7656,648.5,421.7656,644.5,417.7656" style="stroke: #B40D63; stroke-width: 1.0;"/><line style="stroke: #B40D63; stroke-width: 1.0; stroke-dasharray: 2.0,2.0;" x1="642.5" x2="786.5" y1="417.7656" y2="417.7656"/><text fill="#000000" font-family="sans-serif" font-size="13" lengthAdjust="spacingAndGlyphs" textLength="50" x="654.5" y="413.2607">method1</text><polygon fill="#B40D63" points="493.5,444.1172,483.5,448.1172,493.5,452.1172,489.5,448.1172" style="stroke: #B40D63; stroke-width: 1.0;"/><line style="stroke: #B40D63; stroke-width: 1.0; stroke-dasharray: 2.0,2.0;" x1="487.5" x2="631.5" y1="448.1172" y2="448.1172"/><text fill="#000000" font-family="sans-serif" font-size="13" lengthAdjust="spacingAndGlyphs" textLength="50" x="499.5" y="443.6123">method1</text><polygon fill="#B40D63" points="908.5,474.4688,918.5,478.4688,908.5,482.4688,912.5,478.4688" style="stroke: #B40D63; stroke-width: 1.0;"/><line style="stroke: #B40D63; stroke-width: 1.0;" x1="482.5" x2="914.5" y1="478.4688" y2="478.4688"/><text fill="#000000" font-family="sans-serif" font-size="13" lengthAdjust="spacingAndGlyphs" textLength="50" x="489.5" y="473.9639">method2</text><polygon fill="#B40D63" points="1019.5,504.8203,1029.5,508.8203,1019.5,512.8203,1023.5,508.8203" style="stroke: #B40D63; stroke-width: 1.0;"/><line style="stroke: #B40D63; stroke-width: 1.0;" x1="930.5" x2="1025.5" y1="508.8203" y2="508.8203"/><text fill="#000000" font-family="sans-serif" font-size="13" lengthAdjust="spacingAndGlyphs" textLength="18" x="937.5" y="504.3154">m2</text><polygon fill="#B40D63" points="941.5,535.1719,931.5,539.1719,941.5,543.1719,937.5,539.1719" style="stroke: #B40D63; stroke-width: 1.0;"/><line style="stroke: #B40D63; stroke-width: 1.0; stroke-dasharray: 2.0,2.0;" x1="935.5" x2="1035.5" y1="539.1719" y2="539.1719"/><text fill="#000000" font-family="sans-serif" font-size="13" lengthAdjust="spacingAndGlyphs" textLength="18" x="947.5" y="534.667">m2</text><polygon fill="#B40D63" points="493.5,565.5234,483.5,569.5234,493.5,573.5234,489.5,569.5234" style="stroke: #B40D63; stroke-width: 1.0;"/><line style="stroke: #B40D63; stroke-width: 1.0; stroke-dasharray: 2.0,2.0;" x1="487.5" x2="924.5" y1="569.5234" y2="569.5234"/><text fill="#000000" font-family="sans-serif" font-size="13" lengthAdjust="spacingAndGlyphs" textLength="50" x="499.5" y="565.0186">method2</text><polygon fill="#B40D63" points="308.5,595.875,298.5,599.875,308.5,603.875,304.5,599.875" style="stroke: #B40D63; stroke-width: 1.0;"/><line style="stroke: #B40D63; stroke-width: 1.0; stroke-dasharray: 2.0,2.0;" x1="302.5" x2="476.5" y1="599.875" y2="599.875"/><text fill="#000000" font-family="sans-serif" font-size="13" lengthAdjust="spacingAndGlyphs" textLength="50" x="314.5" y="595.3701">method1</text><polygon fill="#B40D63" points="67.5,626.2266,57.5,630.2266,67.5,634.2266,63.5,630.2266" style="stroke: #B40D63; stroke-width: 1.0;"/><line style="stroke: #B40D63; stroke-width: 1.0; stroke-dasharray: 2.0,2.0;" x1="61.5" x2="291.5" y1="630.2266" y2="630.2266"/><text fill="#000000" font-family="sans-serif" font-size="13" lengthAdjust="spacingAndGlyphs" textLength="207" x="73.5" y="625.7217">getDummySampleServiceResponse</text><text fill="#888888" font-family="sans-serif" font-size="10" lengthAdjust="spacingAndGlyphs" textLength="92" x="499" y="13.3809">Sequence-Diagram</text><text fill="#888888" font-family="sans-serif" font-size="10" lengthAdjust="spacingAndGlyphs" textLength="58" x="454.5" y="706.3418">Created on :</text><text fill="#888888" font-family="sans-serif" font-size="10" font-style="italic" lengthAdjust="spacingAndGlyphs" textLength="123" x="512.5" y="706.3418">2018-07-09T12:44:15.837</text></g></svg>