<?xml version="1.0" encoding="UTF-8" standalone="yes"?><svg xmlns="http://www.w3.org/2000/svg" xmlns:xlink="http://www.w3.org/1999/xlink" height="889px" style="width:1261px;height:889px;" version="1.1" viewBox="0 0 1261 889" width="1261px"><defs><filter height="300%" id="f1" width="300%" x="-1" y="-1"><feGaussianBlur result="blurOut" stdDeviation="2.0"/><feColorMatrix in="blurOut" result="blurOut2" type="matrix" values="0 0 0 0 0 0 0 0 0 0 0 0 0 0 0 0 0 0 .4 0"/><feOffset dx="4.0" dy="4.0" in="blurOut2" result="blurOut3"/><feBlend in="SourceGraphic" in2="blurOut3" mode="normal"/></filter></defs><g><text fill="#B40D63" font-family="sans-serif" font-size="18" font-weight="bold" lengthAdjust="spacingAndGlyphs" textLength="299" x="482.5" y="44.2637">SampleService.getSampleService</text><rect fill="#FFFFFF" filter="url(#f1)" height="663.3828" style="stroke: #B40D63; stroke-width: 1.0;" width="10" x="242.5" y="148.9531"/><rect fill="#FFFFFF" filter="url(#f1)" height="30.3516" style="stroke: #B40D63; stroke-width: 1.0;" width="10" x="395" y="179.3047"/><rect fill="#FFFFFF" filter="url(#f1)" height="420.5703" style="stroke: #B40D63; stroke-width: 1.0;" width="10" x="545.5" y="240.0078"/><rect fill="#FFFFFF" filter="url(#f1)" height="102.0547" style="stroke: #B40D63; stroke-width: 1.0;" width="10" x="550.5" y="278.3594"/><rect fill="#FFFFFF" filter="url(#f1)" height="30.3516" style="stroke: #B40D63; stroke-width: 1.0;" width="10" x="700.5" y="313.7109"/><rect fill="#FFFFFF" filter="url(#f1)" height="91.0547" style="stroke: #B40D63; stroke-width: 1.0;" width="10" x="700.5" y="417.7656"/><rect fill="#FFFFFF" filter="url(#f1)" height="30.3516" style="stroke: #B40D63; stroke-width: 1.0;" width="10" x="855.5" y="448.1172"/><rect fill="#FFFFFF" filter="url(#f1)" height="91.0547" style="stroke: #B40D63; stroke-width: 1.0;" width="10" x="993.5" y="539.1719"/><rect fill="#FFFFFF" filter="url(#f1)" height="91.0547" style="stroke: #B40D63; stroke-width: 1.0;" width="10" x="993.5" y="690.9297"/><rect fill="#FFFFFF" filter="url(#f1)" height="30.3516" style="stroke: #B40D63; stroke-width: 1.0;" width="10" x="1104.5" y="721.2813"/><rect fill="#FFFFFF" filter="url(#f1)" height="30.3516" style="stroke: #B40D63; stroke-width: 1.0;" width="10" x="1205.5" y="569.5234"/><rect fill="#E7FFE7" height="817.8516" style="stroke: #A80036; stroke-width: 1.0;" width="157" x="169" y="56.2188"/><text fill="#000000" font-family="sans-serif" font-size="13" font-weight="bold" lengthAdjust="spacingAndGlyphs" textLength="63" x="216" y="69.7139">Operation</text><rect fill="#FFF1F9" height="817.8516" style="stroke: #A80036; stroke-width: 1.0;" width="609" x="328" y="56.2188"/><text fill="#000000" font-family="sans-serif" font-size="13" font-weight="bold" lengthAdjust="spacingAndGlyphs" textLength="79" x="593" y="69.7139">Components</text><rect fill="#EFF6FF" height="817.8516" style="stroke: #A80036; stroke-width: 1.0;" width="119" x="939" y="56.2188"/><text fill="#000000" font-family="sans-serif" font-size="13" font-weight="bold" lengthAdjust="spacingAndGlyphs" textLength="25" x="986" y="69.7139">Dao</text><rect fill="#FFF9F4" height="817.8516" style="stroke: #A80036; stroke-width: 1.0;" width="200" x="1060" y="56.2188"/><text fill="#000000" font-family="sans-serif" font-size="13" font-weight="bold" lengthAdjust="spacingAndGlyphs" textLength="55" x="1132.5" y="69.7139">Backend</text><line style="stroke: #B40D63; stroke-width: 1.0; stroke-dasharray: 5.0,5.0;" x1="56" x2="56" y1="116.9531" y2="830.6875"/><line style="stroke: #B40D63; stroke-width: 1.0; stroke-dasharray: 5.0,5.0;" x1="247" x2="247" y1="116.9531" y2="830.6875"/><line style="stroke: #B40D63; stroke-width: 1.0; stroke-dasharray: 5.0,5.0;" x1="400" x2="400" y1="116.9531" y2="830.6875"/><line style="stroke: #B40D63; stroke-width: 1.0; stroke-dasharray: 5.0,5.0;" x1="550" x2="550" y1="116.9531" y2="830.6875"/><line style="stroke: #B40D63; stroke-width: 1.0; stroke-dasharray: 5.0,5.0;" x1="705" x2="705" y1="116.9531" y2="830.6875"/><line style="stroke: #B40D63; stroke-width: 1.0; stroke-dasharray: 5.0,5.0;" x1="860" x2="860" y1="116.9531" y2="830.6875"/><line style="stroke: #B40D63; stroke-width: 1.0; stroke-dasharray: 5.0,5.0;" x1="998" x2="998" y1="116.9531" y2="830.6875"/><line style="stroke: #B40D63; stroke-width: 1.0; stroke-dasharray: 5.0,5.0;" x1="1109" x2="1109" y1="116.9531" y2="830.6875"/><line style="stroke: #B40D63; stroke-width: 1.0; stroke-dasharray: 5.0,5.0;" x1="1210" x2="1210" y1="116.9531" y2="830.6875"/><rect fill="#FFFFFF" filter="url(#f1)" height="35.3828" style="stroke: #E20074; stroke-width: 1.5;" width="93" x="8" y="76.5703"/><text fill="#000000" font-family="sans-serif" font-size="17" lengthAdjust="spacingAndGlyphs" textLength="79" x="15" y="101.2178">SoapClient</text><rect fill="#FFFFFF" filter="url(#f1)" height="35.3828" style="stroke: #E20074; stroke-width: 1.5;" width="93" x="8" y="829.6875"/><text fill="#000000" font-family="sans-serif" font-size="17" lengthAdjust="spacingAndGlyphs" textLength="79" x="15" y="854.335">SoapClient</text><rect fill="#FFFFFF" filter="url(#f1)" height="35.3828" style="stroke: #E20074; stroke-width: 1.5;" width="145" x="173" y="76.5703"/><text fill="#000000" font-family="sans-serif" font-size="17" lengthAdjust="spacingAndGlyphs" textLength="131" x="180" y="101.2178">getSampleService</text><rect fill="#FFFFFF" filter="url(#f1)" height="35.3828" style="stroke: #E20074; stroke-width: 1.5;" width="145" x="173" y="829.6875"/><text fill="#000000" font-family="sans-serif" font-size="17" lengthAdjust="spacingAndGlyphs" textLength="131" x="180" y="854.335">getSampleService</text><rect fill="#FFFFFF" filter="url(#f1)" height="35.3828" style="stroke: #E20074; stroke-width: 1.5;" width="132" x="332" y="76.5703"/><text fill="#000000" font-family="sans-serif" font-size="17" lengthAdjust="spacingAndGlyphs" textLength="118" x="339" y="101.2178">SampleValidator</text><rect fill="#FFFFFF" filter="url(#f1)" height="35.3828" style="stroke: #E20074; stroke-width: 1.5;" width="132" x="332" y="829.6875"/><text fill="#000000" font-family="sans-serif" font-size="17" lengthAdjust="spacingAndGlyphs" textLength="118" x="339" y="854.335">SampleValidator</text><rect fill="#FFFFFF" filter="url(#f1)" height="35.3828" style="stroke: #E20074; stroke-width: 1.5;" width="141" x="478" y="76.5703"/><text fill="#000000" font-family="sans-serif" font-size="17" lengthAdjust="spacingAndGlyphs" textLength="127" x="485" y="101.2178">SampleManager1</text><rect fill="#FFFFFF" filter="url(#f1)" height="35.3828" style="stroke: #E20074; stroke-width: 1.5;" width="141" x="478" y="829.6875"/><text fill="#000000" font-family="sans-serif" font-size="17" lengthAdjust="spacingAndGlyphs" textLength="127" x="485" y="854.335">SampleManager1</text><rect fill="#FFFFFF" filter="url(#f1)" height="35.3828" style="stroke: #E20074; stroke-width: 1.5;" width="141" x="633" y="76.5703"/><text fill="#000000" font-family="sans-serif" font-size="17" lengthAdjust="spacingAndGlyphs" textLength="127" x="640" y="101.2178">SampleManager2</text><rect fill="#FFFFFF" filter="url(#f1)" height="35.3828" style="stroke: #E20074; stroke-width: 1.5;" width="141" x="633" y="829.6875"/><text fill="#000000" font-family="sans-serif" font-size="17" lengthAdjust="spacingAndGlyphs" textLength="127" x="640" y="854.335">SampleManager2</text><rect fill="#FFFFFF" filter="url(#f1)" height="35.3828" style="stroke: #E20074; stroke-width: 1.5;" width="141" x="788" y="76.5703"/><text fill="#000000" font-family="sans-serif" font-size="17" lengthAdjust="spacingAndGlyphs" textLength="127" x="795" y="101.2178">SampleManager3</text><rect fill="#FFFFFF" filter="url(#f1)" height="35.3828" style="stroke: #E20074; stroke-width: 1.5;" width="141" x="788" y="829.6875"/><text fill="#000000" font-family="sans-serif" font-size="17" lengthAdjust="spacingAndGlyphs" textLength="127" x="795" y="854.335">SampleManager3</text><rect fill="#FFFFFF" filter="url(#f1)" height="35.3828" style="stroke: #E20074; stroke-width: 1.5;" width="107" x="943" y="76.5703"/><text fill="#000000" font-family="sans-serif" font-size="17" lengthAdjust="spacingAndGlyphs" textLength="93" x="950" y="101.2178">SampleDao1</text><rect fill="#FFFFFF" filter="url(#f1)" height="35.3828" style="stroke: #E20074; stroke-width: 1.5;" width="107" x="943" y="829.6875"/><text fill="#000000" font-family="sans-serif" font-size="17" lengthAdjust="spacingAndGlyphs" textLength="93" x="950" y="854.335">SampleDao1</text><rect fill="#FFFFFF" filter="url(#f1)" height="35.3828" style="stroke: #E20074; stroke-width: 1.5;" width="87" x="1064" y="76.5703"/><text fill="#000000" font-family="sans-serif" font-size="17" lengthAdjust="spacingAndGlyphs" textLength="73" x="1071" y="101.2178">Backend1</text><rect fill="#FFFFFF" filter="url(#f1)" height="35.3828" style="stroke: #E20074; stroke-width: 1.5;" width="87" x="1064" y="829.6875"/><text fill="#000000" font-family="sans-serif" font-size="17" lengthAdjust="spacingAndGlyphs" textLength="73" x="1071" y="854.335">Backend1</text><rect fill="#FFFFFF" filter="url(#f1)" height="35.3828" style="stroke: #E20074; stroke-width: 1.5;" width="87" x="1165" y="76.5703"/><text fill="#000000" font-family="sans-serif" font-size="17" lengthAdjust="spacingAndGlyphs" textLength="73" x="1172" y="101.2178">Backend2</text><rect fill="#FFFFFF" filter="url(#f1)" height="35.3828" style="stroke: #E20074; stroke-width: 1.5;" width="87" x="1165" y="829.6875"/><text fill="#000000" font-family="sans-serif" font-size="17" lengthAdjust="spacingAndGlyphs" textLength="73" x="1172" y="854.335">Backend2</text><rect fill="#FFFFFF" filter="url(#f1)" height="663.3828" style="stroke: #B40D63; stroke-width: 1.0;" width="10" x="242.5" y="148.9531"/><rect fill="#FFFFFF" filter="url(#f1)" height="30.3516" style="stroke: #B40D63; stroke-width: 1.0;" width="10" x="395" y="179.3047"/><rect fill="#FFFFFF" filter="url(#f1)" height="420.5703" style="stroke: #B40D63; stroke-width: 1.0;" width="10" x="545.5" y="240.0078"/><rect fill="#FFFFFF" filter="url(#f1)" height="102.0547" style="stroke: #B40D63; stroke-width: 1.0;" width="10" x="550.5" y="278.3594"/><rect fill="#FFFFFF" filter="url(#f1)" height="30.3516" style="stroke: #B40D63; stroke-width: 1.0;" width="10" x="700.5" y="313.7109"/><rect fill="#FFFFFF" filter="url(#f1)" height="91.0547" style="stroke: #B40D63; stroke-width: 1.0;" width="10" x="700.5" y="417.7656"/><rect fill="#FFFFFF" filter="url(#f1)" height="30.3516" style="stroke: #B40D63; stroke-width: 1.0;" width="10" x="855.5" y="448.1172"/><rect fill="#FFFFFF" filter="url(#f1)" height="91.0547" style="stroke: #B40D63; stroke-width: 1.0;" width="10" x="993.5" y="539.1719"/><rect fill="#FFFFFF" filter="url(#f1)" height="91.0547" style="stroke: #B40D63; stroke-width: 1.0;" width="10" x="993.5" y="690.9297"/><rect fill="#FFFFFF" filter="url(#f1)" height="30.3516" style="stroke: #B40D63; stroke-width: 1.0;" width="10" x="1104.5" y="721.2813"/><rect fill="#FFFFFF" filter="url(#f1)" height="30.3516" style="stroke: #B40D63; stroke-width: 1.0;" width="10" x="1205.5" y="569.5234"/><polygon fill="#B40D63" points="230.5,144.9531,240.5,148.9531,230.5,152.9531,234.5,148.9531" style="stroke: #B40D63; stroke-width: 1.0;"/><line style="stroke: #B40D63; stroke-width: 1.0;" x1="56.5" x2="236.5" y1="148.9531" y2="148.9531"/><text fill="#000000" font-family="sans-serif" font-size="13" lengthAdjust="spacingAndGlyphs" textLength="152" x="63.5" y="144.4482">getSampleServiceRequest</text><polygon fill="#B40D63" points="383,175.3047,393,179.3047,383,183.3047,387,179.3047" style="stroke: #B40D63; stroke-width: 1.0;"/><line style="stroke: #B40D63; stroke-width: 1.0;" x1="252.5" x2="389" y1="179.3047" y2="179.3047"/><text fill="#000000" font-family="sans-serif" font-size="13" lengthAdjust="spacingAndGlyphs" textLength="91" x="259.5" y="174.7998">validateRequest</text><polygon fill="#B40D63" points="263.5,205.6563,253.5,209.6563,263.5,213.6563,259.5,209.6563" style="stroke: #B40D63; stroke-width: 1.0;"/><line style="stroke: #B40D63; stroke-width: 1.0; stroke-dasharray: 2.0,2.0;" x1="257.5" x2="399" y1="209.6563" y2="209.6563"/><text fill="#000000" font-family="sans-serif" font-size="13" lengthAdjust="spacingAndGlyphs" textLength="91" x="269.5" y="205.1514">validateRequest</text><polygon fill="#B40D63" points="533.5,236.0078,543.5,240.0078,533.5,244.0078,537.5,240.0078" style="stroke: #B40D63; stroke-width: 1.0;"/><line style="stroke: #B40D63; stroke-width: 1.0;" x1="252.5" x2="539.5" y1="240.0078" y2="240.0078"/><text fill="#000000" font-family="sans-serif" font-size="13" lengthAdjust="spacingAndGlyphs" textLength="50" x="259.5" y="235.5029">method1</text><line style="stroke: #B40D63; stroke-width: 1.0;" x1="555.5" x2="602.5" y1="265.7109" y2="265.7109"/><line style="stroke: #B40D63; stroke-width: 1.0;" x1="602.5" x2="602.5" y1="265.7109" y2="278.7109"/><line style="stroke: #B40D63; stroke-width: 1.0;" x1="561.5" x2="602.5" y1="278.7109" y2="278.7109"/><polygon fill="#B40D63" points="571.5,274.7109,561.5,278.7109,571.5,282.7109,567.5,278.7109" style="stroke: #B40D63; stroke-width: 1.0;"/><text fill="#000000" font-family="sans-serif" font-size="13" lengthAdjust="spacingAndGlyphs" textLength="50" x="567.5" y="260.8545">method2</text><polygon fill="#B40D63" points="688.5,309.7109,698.5,313.7109,688.5,317.7109,692.5,313.7109" style="stroke: #B40D63; stroke-width: 1.0;"/><line style="stroke: #B40D63; stroke-width: 1.0;" x1="560.5" x2="694.5" y1="313.7109" y2="313.7109"/><text fill="#000000" font-family="sans-serif" font-size="13" lengthAdjust="spacingAndGlyphs" textLength="50" x="567.5" y="309.2061">method2</text><polygon fill="#B40D63" points="571.5,340.0625,561.5,344.0625,571.5,348.0625,567.5,344.0625" style="stroke: #B40D63; stroke-width: 1.0;"/><line style="stroke: #B40D63; stroke-width: 1.0; stroke-dasharray: 2.0,2.0;" x1="565.5" x2="704.5" y1="344.0625" y2="344.0625"/><text fill="#000000" font-family="sans-serif" font-size="13" lengthAdjust="spacingAndGlyphs" textLength="50" x="577.5" y="339.5576">method2</text><line style="stroke: #B40D63; stroke-width: 1.0; stroke-dasharray: 2.0,2.0;" x1="560.5" x2="602.5" y1="379.7656" y2="379.7656"/><line style="stroke: #B40D63; stroke-width: 1.0; stroke-dasharray: 2.0,2.0;" x1="602.5" x2="602.5" y1="379.7656" y2="392.7656"/><line style="stroke: #B40D63; stroke-width: 1.0; stroke-dasharray: 2.0,2.0;" x1="555.5" x2="602.5" y1="392.7656" y2="392.7656"/><polygon fill="#B40D63" points="565.5,388.7656,555.5,392.7656,565.5,396.7656,561.5,392.7656" style="stroke: #B40D63; stroke-width: 1.0;"/><text fill="#000000" font-family="sans-serif" font-size="13" lengthAdjust="spacingAndGlyphs" textLength="50" x="567.5" y="374.9092">method2</text><polygon fill="#B40D63" points="688.5,413.7656,698.5,417.7656,688.5,421.7656,692.5,417.7656" style="stroke: #B40D63; stroke-width: 1.0;"/><line style="stroke: #B40D63; stroke-width: 1.0;" x1="555.5" x2="694.5" y1="417.7656" y2="417.7656"/><text fill="#000000" font-family="sans-serif" font-size="13" lengthAdjust="spacingAndGlyphs" textLength="50" x="562.5" y="413.2607">method1</text><polygon fill="#B40D63" points="843.5,444.1172,853.5,448.1172,843.5,452.1172,847.5,448.1172" style="stroke: #B40D63; stroke-width: 1.0;"/><line style="stroke: #B40D63; stroke-width: 1.0;" x1="710.5" x2="849.5" y1="448.1172" y2="448.1172"/><text fill="#000000" font-family="sans-serif" font-size="13" lengthAdjust="spacingAndGlyphs" textLength="50" x="717.5" y="443.6123">method1</text><polygon fill="#B40D63" points="721.5,474.4688,711.5,478.4688,721.5,482.4688,717.5,478.4688" style="stroke: #B40D63; stroke-width: 1.0;"/><line style="stroke: #B40D63; stroke-width: 1.0; stroke-dasharray: 2.0,2.0;" x1="715.5" x2="859.5" y1="478.4688" y2="478.4688"/><text fill="#000000" font-family="sans-serif" font-size="13" lengthAdjust="spacingAndGlyphs" textLength="50" x="727.5" y="473.9639">method1</text><polygon fill="#B40D63" points="566.5,504.8203,556.5,508.8203,566.5,512.8203,562.5,508.8203" style="stroke: #B40D63; stroke-width: 1.0;"/><line style="stroke: #B40D63; stroke-width: 1.0; stroke-dasharray: 2.0,2.0;" x1="560.5" x2="704.5" y1="508.8203" y2="508.8203"/><text fill="#000000" font-family="sans-serif" font-size="13" lengthAdjust="spacingAndGlyphs" textLength="50" x="572.5" y="504.3154">method1</text><polygon fill="#B40D63" points="981.5,535.1719,991.5,539.1719,981.5,543.1719,985.5,539.1719" style="stroke: #B40D63; stroke-width: 1.0;"/><line style="stroke: #B40D63; stroke-width: 1.0;" x1="555.5" x2="987.5" y1="539.1719" y2="539.1719"/><text fill="#000000" font-family="sans-serif" font-size="13" lengthAdjust="spacingAndGlyphs" textLength="50" x="562.5" y="534.667">method2</text><polygon fill="#B40D63" points="1193.5,565.5234,1203.5,569.5234,1193.5,573.5234,1197.5,569.5234" style="stroke: #B40D63; stroke-width: 1.0;"/><line style="stroke: #B40D63; stroke-width: 1.0;" x1="1003.5" x2="1199.5" y1="569.5234" y2="569.5234"/><text fill="#000000" font-family="sans-serif" font-size="13" lengthAdjust="spacingAndGlyphs" textLength="18" x="1010.5" y="565.0186">m2</text><polygon fill="#B40D63" points="1014.5,595.875,1004.5,599.875,1014.5,603.875,1010.5,599.875" style="stroke: #B40D63; stroke-width: 1.0;"/><line style="stroke: #B40D63; stroke-width: 1.0; stroke-dasharray: 2.0,2.0;" x1="1008.5" x2="1209.5" y1="599.875" y2="599.875"/><text fill="#000000" font-family="sans-serif" font-size="13" lengthAdjust="spacingAndGlyphs" textLength="18" x="1020.5" y="595.3701">m2</text><polygon fill="#B40D63" points="566.5,626.2266,556.5,630.2266,566.5,634.2266,562.5,630.2266" style="stroke: #B40D63; stroke-width: 1.0;"/><line style="stroke: #B40D63; stroke-width: 1.0; stroke-dasharray: 2.0,2.0;" x1="560.5" x2="997.5" y1="630.2266" y2="630.2266"/><text fill="#000000" font-family="sans-serif" font-size="13" lengthAdjust="spacingAndGlyphs" textLength="50" x="572.5" y="625.7217">method2</text><polygon fill="#B40D63" points="263.5,656.5781,253.5,660.5781,263.5,664.5781,259.5,660.5781" style="stroke: #B40D63; stroke-width: 1.0;"/><line style="stroke: #B40D63; stroke-width: 1.0; stroke-dasharray: 2.0,2.0;" x1="257.5" x2="549.5" y1="660.5781" y2="660.5781"/><text fill="#000000" font-family="sans-serif" font-size="13" lengthAdjust="spacingAndGlyphs" textLength="50" x="269.5" y="656.0732">method1</text><polygon fill="#B40D63" points="981.5,686.9297,991.5,690.9297,981.5,694.9297,985.5,690.9297" style="stroke: #B40D63; stroke-width: 1.0;"/><line style="stroke: #B40D63; stroke-width: 1.0;" x1="252.5" x2="987.5" y1="690.9297" y2="690.9297"/><text fill="#000000" font-family="sans-serif" font-size="13" lengthAdjust="spacingAndGlyphs" textLength="50" x="259.5" y="686.4248">method1</text><polygon fill="#B40D63" points="1092.5,717.2813,1102.5,721.2813,1092.5,725.2813,1096.5,721.2813" style="stroke: #B40D63; stroke-width: 1.0;"/><line style="stroke: #B40D63; stroke-width: 1.0;" x1="1003.5" x2="1098.5" y1="721.2813" y2="721.2813"/><text fill="#000000" font-family="sans-serif" font-size="13" lengthAdjust="spacingAndGlyphs" textLength="18" x="1010.5" y="716.7764">m1</text><polygon fill="#B40D63" points="1014.5,747.6328,1004.5,751.6328,1014.5,755.6328,1010.5,751.6328" style="stroke: #B40D63; stroke-width: 1.0;"/><line style="stroke: #B40D63; stroke-width: 1.0; stroke-dasharray: 2.0,2.0;" x1="1008.5" x2="1108.5" y1="751.6328" y2="751.6328"/><text fill="#000000" font-family="sans-serif" font-size="13" lengthAdjust="spacingAndGlyphs" textLength="18" x="1020.5" y="747.1279">m1</text><polygon fill="#B40D63" points="263.5,777.9844,253.5,781.9844,263.5,785.9844,259.5,781.9844" style="stroke: #B40D63; stroke-width: 1.0;"/><line style="stroke: #B40D63; stroke-width: 1.0; stroke-dasharray: 2.0,2.0;" x1="257.5" x2="997.5" y1="781.9844" y2="781.9844"/><text fill="#000000" font-family="sans-serif" font-size="13" lengthAdjust="spacingAndGlyphs" textLength="50" x="269.5" y="777.4795">method1</text><polygon fill="#B40D63" points="67.5,808.3359,57.5,812.3359,67.5,816.3359,63.5,812.3359" style="stroke: #B40D63; stroke-width: 1.0;"/><line style="stroke: #B40D63; stroke-width: 1.0; stroke-dasharray: 2.0,2.0;" x1="61.5" x2="246.5" y1="812.3359" y2="812.3359"/><text fill="#000000" font-family="sans-serif" font-size="13" lengthAdjust="spacingAndGlyphs" textLength="162" x="73.5" y="807.8311">getSampleServiceResponse</text><text fill="#888888" font-family="sans-serif" font-size="10" lengthAdjust="spacingAndGlyphs" textLength="92" x="586" y="13.3809">Sequence-Diagram</text><text fill="#888888" font-family="sans-serif" font-size="10" lengthAdjust="spacingAndGlyphs" textLength="58" x="541.5" y="888.4512">Created on :</text><text fill="#888888" font-family="sans-serif" font-size="10" font-style="italic" lengthAdjust="spacingAndGlyphs" textLength="123" x="599.5" y="888.4512">2018-07-08T14:44:49.047</text></g></svg>